Coordinates
version=1
nRows=4
nColumns=63
inDegrees=yes

Units are S.I. units (second, meters, Newtons, ...)
If the header above contains a line with 'inDegrees', this indicates whether rotational values are in degrees (yes) or radians (no).

endheader
time	pelvis_tilt	pelvis_list	pelvis_rotation	pelvis_tx	pelvis_ty	pelvis_tz	hip_flexion_r	hip_adduction_r	hip_rotation_r	knee_angle_r	knee_angle_r_beta	ankle_angle_r	subtalar_angle_r	mtp_angle_r	hip_flexion_l	hip_adduction_l	hip_rotation_l	knee_angle_l	knee_angle_l_beta	ankle_angle_l	subtalar_angle_l	mtp_angle_l	L5_S1_Flex_Ext	L5_S1_Lat_Bending	L5_S1_axial_rotation	L4_L5_Flex_Ext	L4_L5_Lat_Bending	L4_L5_axial_rotation	L3_L4_Flex_Ext	L3_L4_Lat_Bending	L3_L4_axial_rotation	L2_L3_Flex_Ext	L2_L3_Lat_Bending	L2_L3_axial_rotation	L1_L2_Flex_Ext	L1_L2_Lat_Bending	L1_L2_axial_rotation	L1_T12_Flex_Ext	L1_T12_Lat_Bending	L1_T12_axial_rotation	Abs_r3	Abs_r2	Abs_r1	Abs_t1	Abs_t2	neck_flexion	neck_bending	neck_rotation	arm_flex_r	arm_add_r	arm_rot_r	elbow_flex_r	pro_sup_r	wrist_flex_r	wrist_dev_r	arm_flex_l	arm_add_l	arm_rot_l	elbow_flex_l	pro_sup_l	wrist_flex_l	wrist_dev_l
      0.00800000	    -55.65148133	    -11.57402733	      1.29142242	     -0.27125508	      1.07517068	     -0.05094189	    114.03022268	    -12.68410280	    -14.63841263	     77.41980587	      1.35123052	     12.29728912	      4.16685195	      0.00000000	    102.66620398	     -1.81473277	     13.27107950	     82.08760616	      1.43269900	     -3.04479047	      0.24323199	      0.00000000	     -0.09415316	      1.97424960	      0.07695766	     -0.17485184	      2.62575197	      0.08176752	     -0.15468423	      4.80019048	      0.08176752	     -0.10760765	      4.80019048	      0.06733796	     -0.08743063	      4.02588979	      0.06252810	     -0.05379912	      3.05811263	      0.05771825	     -0.67252663	     22.33310633	      0.42801544	      0.00000000	      0.00000000	     -0.00000000	      0.00000000	      0.00000000	     66.62329328	    -16.89018042	     25.51114429	     39.19787105	     24.34297110	      0.00000000	      6.02483677	     58.02752238	     -6.16181147	      6.05179416	     40.69201973	     20.06595577	      0.00000000	      6.02483677
      0.01700000	    -55.48004155	    -12.47418576	      3.32163688	     -0.27247662	      1.07487985	     -0.05211208	    111.24108948	    -13.50878460	    -14.67744756	     72.79373130	      1.27049029	     11.40300072	      2.23761697	      0.00000000	    104.04815263	      0.26567733	     13.83228594	     85.48697198	      1.49202913	      0.84008131	      2.45816538	      0.00000000	     -0.09329775	      2.04776845	     -0.27610782	     -0.17326325	      2.72353204	     -0.29336456	     -0.15327887	      4.97894421	     -0.29336456	     -0.10662999	      4.97894421	     -0.24159434	     -0.08663629	      4.17580943	     -0.22433760	     -0.05331033	      3.17199333	     -0.20708086	     -0.66641647	     23.16476629	     -1.53562886	      0.00000000	      0.00000000	     -0.00000000	      0.00000000	      0.00000000	     66.90412576	    -16.91071867	     25.83013351	     39.33334541	     24.32427761	      0.00000000	      5.97344108	     58.49759221	     -6.17233200	      5.97755657	     40.45579452	     20.03710457	      0.00000000	      5.97344108
      0.02500000	    -55.42052759	    -12.34690458	      3.81365700	     -0.27264880	      1.07434728	     -0.05231482	    110.52050032	    -13.64337126	    -14.40208225	     71.62252930	      1.25004895	     11.08126317	      2.21860024	      0.00000000	    104.65311476	      0.72990267	     13.61628064	     86.81997470	      1.51529442	      1.28691947	      2.36465289	      0.00000000	     -0.09040314	      2.01887237	     -0.36815010	     -0.16788768	      2.68510026	     -0.39115949	     -0.14852333	      4.90868629	     -0.39115949	     -0.10332175	      4.90868629	     -0.32213134	     -0.08394836	      4.11688454	     -0.29912196	     -0.05165636	      3.12723330	     -0.27611258	     -0.64574062	     22.83788805	     -2.04754044	      0.00000000	      0.00000000	     -0.00000000	      0.00000000	      0.00000000	     66.80433844	    -16.87933551	     25.84880853	     39.40478642	     24.32489906	      0.00000000	      5.97111403	     58.59385769	     -6.25074785	      5.96014199	     40.46755828	     20.03574436	      0.00000000	      5.97111403
      0.03300000	    -55.41067248	    -12.13673048	      3.67620310	     -0.27252593	      1.07370991	     -0.05141307	    109.55107919	    -13.01197741	    -14.36468140	     69.95053622	      1.22086717	     10.61095309	      1.34940431	      0.00000000	    105.32798534	      0.53843474	     13.45515115	     88.47737383	      1.54422149	      3.07112882	      1.93838975	      0.00000000	     -0.09455538	      1.98094458	     -0.35753901	     -0.17559880	      2.63465629	     -0.37988520	     -0.15534503	      4.81646865	     -0.37988520	     -0.10806734	      4.81646865	     -0.31284663	     -0.08780413	      4.03954219	     -0.29050045	     -0.05402894	      3.06848315	     -0.26815426	     -0.67539963	     22.40884128	     -1.98852471	      0.00000000	      0.00000000	     -0.00000000	      0.00000000	      0.00000000	     66.59851186	    -16.65294406	     25.56528549	     39.51091612	     24.26459121	      0.00000000	      5.95015266	     58.63630556	     -6.50139771	      6.19282922	     40.54283869	     20.06323479	      0.00000000	      5.95015266
